<svg xmlns="http://www.w3.org/2000/svg" pointer-events="none" class="leaflet-zoom-animated" width="1153" height="690" viewBox="-14 -264 1153 690" style="transform: translate3d(-14px, -264px, 0px);"><g><path class="leaflet-interactive" stroke="black" stroke-opacity="1" stroke-width="1" stroke-linecap="round" stroke-linejoin="round" fill="#fff" fill-opacity="0.2" fill-rule="evenodd" d="M767 8L779 -5L777 -6L776 -10L775 -22L767 -26L729 -25L725 -19L723 -11L716 -17L720 -26L710 -22L705 -25L705 -28L703 -28L708 -32L709 -36L709 -44L707 -44L706 -54L702 -54L699 -51L685 -51L684 -53L677 -43L675 -43L674 -46L665 -46L666 -49L660 -49L658 -45L660 -38L659 -35L656 -34L648 -38L644 -38L641 -35L637 -39L636 -38L634 -42L624 -42L624 -44L626 -44L623 -45L620 -50L618 -49L614 -52L610 -51L605 -53L605 -61L601 -60L598 -61L596 -64L591 -62L594 -55L594 -45L592 -42L594 -35L588 -30L586 -30L587 -29L585 -30L585 -28L584 -29L583 -27L581 -27L580 -30L580 -34L584 -37L583 -38L581 -38L578 -34L574 -33L571 -34L568 -38L559 -29L548 -31L546 -27L544 -27L544 -25L534 -19L530 -18L525 -23L520 -21L516 -16L510 -16L510 -10L507 -5L506 -8L500 -6L489 -9L482 -13L476 -8L466 -14L463 -14L463 -18L459 -18L456 -20L450 -14L443 -11L443 -4L445 1L444 2L447 9L451 10L452 13L448 17L437 22L438 24L447 25L445 31L441 33L443 42L445 42L447 45L445 47L446 49L448 49L447 52L445 53L447 58L446 69L443 67L441 67L441 69L436 68L437 77L425 89L423 87L421 88L420 91L423 92L418 95L417 100L419 102L420 108L414 117L411 117L400 131L396 128L388 131L381 141L374 145L373 157L369 159L363 158L362 160L359 158L353 158L348 166L346 165L346 167L352 174L358 176L357 180L359 180L361 182L360 183L363 186L365 186L368 190L370 188L379 189L379 193L393 196L393 199L399 208L399 210L394 206L394 215L395 218L398 219L398 225L408 222L411 225L413 225L419 220L423 219L422 213L425 212L426 209L434 206L440 199L447 195L452 200L459 204L456 205L462 212L463 218L466 221L488 215L490 219L493 217L498 222L500 222L500 218L504 217L504 214L500 210L502 204L504 206L507 206L509 213L513 213L515 212L518 206L522 207L524 203L525 204L524 201L529 199L529 195L526 191L527 185L525 183L527 179L533 178L535 175L540 181L545 176L549 187L549 192L551 192L552 195L555 196L559 194L562 187L566 188L573 186L577 188L578 185L576 184L579 177L583 174L589 178L592 173L595 174L594 173L596 171L594 167L596 159L601 157L597 152L598 150L602 150L605 147L604 146L605 140L607 139L607 131L609 130L609 128L611 128L611 126L613 126L613 124L615 125L617 122L620 125L630 127L634 125L641 125L643 123L637 117L633 119L627 105L634 109L642 105L645 107L649 107L651 104L653 104L653 95L661 92L664 94L667 88L674 82L675 75L677 75L678 73L681 76L686 68L692 69L694 67L697 72L699 72L700 69L704 71L710 64L710 61L714 60L710 48L708 48L706 45L709 43L708 36L704 33L703 35L700 34L703 29L702 28L704 27L706 29L717 22L721 28L724 23L725 28L729 27L729 25L732 22L731 21L735 19L742 23L744 22L755 25L758 23L764 10z"/><path class="leaflet-interactive" stroke="#333" stroke-opacity="1" stroke-width="0.5" stroke-linecap="round" stroke-linejoin="round" stroke-dasharray="1,6" fill="#fff" fill-opacity="0.2" fill-rule="evenodd" d="M701 -11L697 -12L699 -14L698 -15L695 -13L695 -16L690 -16L692 -21L690 -24L691 -27L689 -27L685 -23L687 -21L684 -18L686 -15L683 -12L685 -12L684 -10L682 -10L681 -7L682 1L676 2L677 3L675 5L677 8L675 11L673 11L672 14L673 15L683 10L688 6L693 -3L700 -5L701 -9z"/><path class="leaflet-interactive" stroke="#333" stroke-opacity="1" stroke-width="0.5" stroke-linecap="round" stroke-linejoin="round" stroke-dasharray="1,6" fill="#fff" fill-opacity="0.2" fill-rule="evenodd" d="M663 -14L667 -6L673 -6L675 -4L676 1L682 1L681 -7L682 -10L684 -10L685 -12L683 -12L686 -14L686 -17L684 -18L687 -21L685 -23L688 -26L682 -28L679 -23L672 -25L672 -17L670 -15L664 -15z"/><path class="leaflet-interactive" stroke="#333" stroke-opacity="1" stroke-width="0.5" stroke-linecap="round" stroke-linejoin="round" stroke-dasharray="1,6" fill="#fff" fill-opacity="0.2" fill-rule="evenodd" d="M647 17L649 17L651 20L647 31L651 32L650 33L652 33L656 37L659 36L661 39L667 39L671 35L674 37L681 33L670 22L672 13L677 8L675 6L677 4L675 -3L673 -6L667 -6L665 -13L662 -15L660 -19L652 -18L651 -10L653 -8L657 -8L658 -5L656 -3L658 1L655 7L654 6L650 8L650 10L649 9L650 11L651 10L648 16z"/><path class="leaflet-interactive" stroke="#333" stroke-opacity="1" stroke-width="0.5" stroke-linecap="round" stroke-linejoin="round" stroke-dasharray="1,6" fill="#fff" fill-opacity="0.2" fill-rule="evenodd" d="M688 6L681 12L670 17L670 22L674 27L679 23L683 26L685 25L685 27L687 26L689 22L687 22L687 20L688 17L690 17L690 8L688 6z"/><path class="leaflet-interactive" stroke="#333" stroke-opacity="1" stroke-width="0.5" stroke-linecap="round" stroke-linejoin="round" stroke-dasharray="1,6" fill="#fff" fill-opacity="0.2" fill-rule="evenodd" d="M767 8L765 8L766 6L752 7L749 1L741 2L740 5L738 3L737 4L734 1L731 1L731 -2L728 -3L727 -7L724 -5L720 -5L716 1L712 3L709 2L703 -5L693 -3L688 6L690 8L690 16L687 20L687 22L689 22L687 26L686 27L680 25L679 23L677 25L676 24L674 27L681 33L672 39L672 43L670 45L672 53L667 59L665 59L666 64L664 66L666 69L665 72L662 74L663 77L661 79L665 86L667 88L669 87L674 82L675 75L677 75L678 73L681 76L686 68L692 69L694 67L697 72L699 72L700 69L704 71L710 64L710 61L714 60L710 48L708 48L706 45L709 43L708 36L704 33L703 35L700 34L703 29L702 28L704 27L706 29L717 22L721 28L724 23L725 28L729 27L729 25L732 22L731 21L735 19L742 23L744 22L755 25L758 23L764 10z"/><path class="leaflet-interactive" stroke="#333" stroke-opacity="1" stroke-width="0.5" stroke-linecap="round" stroke-linejoin="round" stroke-dasharray="1,6" fill="#fff" fill-opacity="0.2" fill-rule="evenodd" d="M671 -25L671 -33L675 -38L674 -46L668 -45L665 -46L666 -49L660 -49L658 -45L660 -38L659 -35L656 -34L648 -38L644 -38L641 -35L637 -39L636 -38L634 -42L624 -42L624 -44L626 -44L623 -45L620 -50L618 -49L614 -52L610 -51L605 -53L605 -61L601 -60L598 -61L596 -64L591 -62L594 -55L594 -45L592 -42L594 -35L589 -31L597 -26L599 -28L602 -27L602 -25L605 -24L612 -15L611 -7L616 -9L618 -7L618 -5L616 -5L616 -1L623 -2L621 8L618 12L621 19L628 15L633 15L636 18L635 22L641 19L645 19L651 10L649 10L651 10L650 8L654 6L655 7L655 5L658 2L658 -1L656 -3L658 -5L657 -8L653 -8L651 -10L652 -17L660 -19L663 -14L667 -17L670 -16L672 -19L671 -24z"/><path class="leaflet-interactive" stroke="#333" stroke-opacity="1" stroke-width="0.5" stroke-linecap="round" stroke-linejoin="round" stroke-dasharray="1,6" fill="#fff" fill-opacity="0.2" fill-rule="evenodd" d="M647 17L636 22L635 16L628 15L616 23L617 25L609 33L609 35L607 35L607 38L603 38L601 36L599 38L591 35L585 28L581 30L577 29L578 27L576 26L576 23L571 20L570 14L564 16L562 21L557 22L555 26L546 26L546 28L549 31L545 36L557 41L558 48L556 51L558 53L561 52L564 55L563 59L565 61L569 59L577 63L580 71L587 71L588 79L595 85L603 82L604 83L615 81L620 89L627 89L626 95L625 97L623 97L622 100L622 102L625 105L632 107L634 109L642 105L645 107L649 107L651 104L653 104L654 94L661 92L664 94L666 92L667 88L661 79L663 77L662 74L665 72L666 69L664 67L666 64L665 59L667 59L672 53L672 46L670 46L672 43L672 39L674 37L672 35L667 39L661 39L659 36L653 36L652 33L648 31L651 21L650 17L647 17z"/><path class="leaflet-interactive" stroke="#333" stroke-opacity="1" stroke-width="0.5" stroke-linecap="round" stroke-linejoin="round" stroke-dasharray="1,6" fill="#fff" fill-opacity="0.2" fill-rule="evenodd" d="M508 66L510 69L513 68L511 62L512 59L510 58L511 56L517 53L519 53L521 57L526 54L536 58L538 56L542 57L544 53L544 44L542 42L544 41L545 35L549 32L546 26L556 26L557 22L562 22L563 17L569 14L571 16L571 20L575 23L578 30L584 28L585 30L588 31L590 35L599 38L601 36L603 38L607 38L607 35L609 35L609 33L616 27L616 23L621 19L617 14L621 8L623 -1L616 -1L616 -5L618 -5L617 -9L612 -7L611 -8L612 -17L606 -22L606 -24L603 -24L602 -27L597 -27L589 -31L581 -27L580 -34L584 -37L583 -38L581 -38L578 -34L574 -33L571 -34L568 -38L559 -29L548 -31L546 -27L544 -27L544 -25L534 -19L530 -18L527 -22L522 -22L516 -16L510 -16L510 -10L507 -5L506 -8L500 -6L489 -9L482 -13L476 -8L466 -14L463 -14L463 -18L459 -18L456 -20L450 -14L443 -11L443 -4L445 1L444 2L447 9L451 10L452 13L448 17L437 22L438 24L447 25L445 31L441 33L443 42L445 42L447 45L445 47L446 49L448 49L447 52L453 54L462 49L463 52L470 48L470 51L472 53L485 53L487 60L489 59L495 63L508 65z"/><path class="leaflet-interactive" stroke="#333" stroke-opacity="1" stroke-width="0.5" stroke-linecap="round" stroke-linejoin="round" stroke-dasharray="1,6" fill="#fff" fill-opacity="0.2" fill-rule="evenodd" d="M701 -5L703 -5L711 3L716 1L720 -5L727 -7L728 -3L731 -2L732 2L734 1L738 4L739 3L740 5L741 2L749 1L751 7L763 5L766 6L764 8L767 8L779 -5L777 -6L776 -10L775 -22L767 -26L729 -25L725 -19L723 -11L716 -17L720 -26L716 -25L702 -18L701 -8z"/><path class="leaflet-interactive" stroke="#333" stroke-opacity="1" stroke-width="0.5" stroke-linecap="round" stroke-linejoin="round" stroke-dasharray="1,6" fill="#fff" fill-opacity="0.2" fill-rule="evenodd" d="M710 -22L705 -25L705 -28L703 -28L708 -32L709 -36L709 -44L707 -44L706 -54L702 -54L699 -51L685 -51L684 -53L681 -50L680 -46L677 -43L675 -43L675 -38L671 -34L671 -25L675 -25L678 -23L681 -25L682 -28L687 -26L691 -27L690 -24L692 -19L690 -16L695 -16L695 -13L698 -16L699 -14L697 -12L700 -11L702 -11L702 -18L707 -19L709 -22z"/><path class="leaflet-interactive" stroke="#333" stroke-opacity="1" stroke-width="0.5" stroke-linecap="round" stroke-linejoin="round" stroke-dasharray="1,6" fill="#fff" fill-opacity="0.2" fill-rule="evenodd" d="M545 37L542 42L544 45L543 57L536 57L527 54L521 57L519 53L517 53L510 57L513 65L512 69L510 69L508 66L505 67L501 65L498 67L500 69L506 70L505 71L507 74L506 77L501 79L499 87L502 90L505 89L511 93L514 91L515 92L515 98L519 103L518 113L528 115L535 104L538 109L540 109L542 106L545 110L549 109L555 114L563 111L565 108L569 108L575 116L578 126L577 128L584 129L587 127L587 131L592 136L591 139L593 142L597 137L603 140L607 139L607 131L609 130L609 128L611 128L611 126L613 126L613 124L615 125L617 122L620 125L628 127L640 124L641 125L643 123L637 117L633 119L627 105L625 105L622 101L623 98L626 96L627 88L623 90L620 89L615 81L604 83L603 82L595 85L588 79L587 72L584 70L579 70L580 68L578 67L577 63L569 59L565 61L563 59L564 55L561 52L558 53L556 51L558 48L558 42L554 39L550 40L547 37z"/><path class="leaflet-interactive" stroke="#333" stroke-opacity="1" stroke-width="0.5" stroke-linecap="round" stroke-linejoin="round" stroke-dasharray="1,6" fill="#fff" fill-opacity="0.2" fill-rule="evenodd" d="M447 52L445 53L447 58L446 69L443 67L441 67L441 69L436 68L437 77L425 89L423 87L421 88L420 91L423 92L418 95L417 100L419 102L420 108L414 117L411 117L400 131L396 128L388 131L381 141L374 145L373 157L369 159L363 158L362 160L359 158L353 158L348 166L346 165L347 169L355 176L358 176L357 180L359 180L361 182L360 183L363 186L365 186L368 190L370 188L379 189L379 193L393 196L393 199L399 208L399 210L394 206L394 215L395 218L398 219L398 225L408 222L411 225L413 225L419 220L423 219L422 213L425 212L426 209L434 206L443 197L451 193L454 193L458 189L462 190L464 188L471 186L478 179L483 178L483 175L486 172L498 170L503 159L502 155L503 154L507 157L507 155L514 151L514 148L517 147L517 145L513 147L510 146L508 143L510 142L511 135L517 130L521 129L525 119L529 115L523 115L523 113L518 113L519 104L515 99L516 95L514 90L512 93L505 89L502 90L499 87L500 81L507 74L505 72L505 69L498 68L501 65L506 67L508 65L507 64L505 65L501 63L492 62L493 61L489 59L487 60L485 56L486 53L475 54L470 51L470 48L463 52L462 48L460 51L453 54L447 52z"/><path class="leaflet-interactive" stroke="#333" stroke-opacity="1" stroke-width="0.5" stroke-linecap="round" stroke-linejoin="round" stroke-dasharray="1,6" fill="#fff" fill-opacity="0.2" fill-rule="evenodd" d="M605 140L596 137L594 142L591 139L592 136L587 131L587 127L585 129L577 128L578 126L575 116L569 108L565 108L564 111L555 114L551 110L546 110L542 106L540 109L538 109L535 104L527 118L525 118L521 129L512 133L510 142L508 143L512 147L516 145L517 146L516 148L514 147L514 150L511 153L509 153L507 157L504 154L502 155L503 158L500 164L500 168L498 170L485 172L483 178L478 178L471 186L464 188L463 190L459 189L458 191L447 195L452 200L459 204L456 205L462 212L463 218L466 221L488 215L490 219L493 217L498 222L500 222L500 218L504 217L504 214L500 210L502 204L504 206L507 206L509 213L513 213L515 212L518 206L522 207L524 203L525 204L524 201L529 199L529 195L526 191L527 185L525 183L527 179L533 178L535 175L540 181L545 176L549 187L549 192L551 192L552 195L555 196L559 194L562 187L566 188L573 186L577 188L578 185L576 184L579 177L583 174L589 178L592 173L595 174L594 173L596 171L594 167L596 159L601 157L597 152L598 150L602 150L605 147L605 142z"/></g></svg>