<?xml version="1.0" encoding="utf-8"?>
<!-- Generator: Adobe Illustrator 25.2.0, SVG Export Plug-In . SVG Version: 6.00 Build 0)  -->
<svg version="1.1" id="图层_1" pointer-events="none"
	 xmlns="http://www.w3.org/2000/svg" xmlns:xlink="http://www.w3.org/1999/xlink" x="0px" y="0px" viewBox="0 0 469.6 241.7"
	 style="enable-background:new 0 0 469.6 241.7;" xml:space="preserve">
<style type="text/css">
	
		.st0{fill-rule:evenodd;clip-rule:evenodd;fill:#FFFFFF;fill-opacity:0.2;stroke:#000000;stroke-linecap:round;stroke-linejoin:round;}
	
		.st1{fill-rule:evenodd;clip-rule:evenodd;fill:#FFFFFF;fill-opacity:0.2;stroke:#333333;stroke-width:0.5;stroke-linecap:round;stroke-linejoin:round;stroke-dasharray:1,6;}
	
		.st2{fill-rule:evenodd;clip-rule:evenodd;fill:#F25F2C;fill-opacity:0.2;stroke:#333333;stroke-width:0.5;stroke-linecap:round;stroke-linejoin:round;stroke-dasharray:1,6;}
	.st3{font-family:'SourceHanSansCN-Heavy-GBpc-EUC-H';}
	.st4{font-size:12px;}
	.st5{fill:none;stroke:#000000;stroke-miterlimit:10;}
	.st6{fill:#FF0000;}
</style>
<g>
	<path class="st0" d="M450.4,143.6l16-7.5l-1.5-1.7l0.6-4.1l3.6-11.5l-5.9-6.7l-35.6-13.4l-6,4.1l-4.9,6.7l-4.2-8.2l7.1-6.8
		l-10.8-0.1l-3.5-4.7l1.1-2.8l-1.9-0.8l6.1-1.8l2.4-3.3l3-7.4l-1.9-0.8l2.8-9.6l-3.7-1.5l-3.9,1.6l-13-5.3l-0.2-2.2l-10.3,6.6
		l-1.9-0.8l0.2-3.2l-8.3-3.4l2.1-2.4l-5.6-2.3l-3.4,3l-0.8,7.2l-2.1,2.4l-3.2-0.2l-5.9-6.7l-3.7-1.5l-3.9,1.6l-2.2-5.2l-1.3,0.5
		l-0.3-4.5l-9.3-3.8l0.8-1.9l1.9,0.8l-2.4-2.1l-0.9-5.8l-2.2,0.2l-2.6-4.3l-4.1-0.6l-3.9-3.7l3-7.4l-4.1-0.6l-2.4-2.1l-0.7-3.5
		l-5.4,0l0.1,7.6l-3.8,9.3l-3,2l-0.8,7.2l-7.4,2.4l-1.9-0.8l0.5,1.3l-1.5-1.7l-0.8,1.9l-0.5-1.3l-1.7,1.5l-1.9-0.8l0.2-3.2l1.5-3.7
		l4.8-1.3l-0.5-1.3l-1.9-0.8l-4.3,2.6l-4.1-0.6l-2.4-2.1l-1.3-4.8L271.6,31l-9.4-6l-3.4,3l-1.9-0.8l-0.8,1.9l-11.5,1.8l-4.1-0.6
		l-2.7-6.5l-5.4,0l-5.6,3.1l-5.6-2.3l-2.3,5.6l-4.7,3.5l0.2-3.2l-6.3-0.4l-9.1-6.9l-5-6.3l-7.4,2.4l-7-9.3l-2.8-1.1l1.5-3.7
		l-3.7-1.5l-2-3L165,3.8l-7.6,0.1l-2.6,6.5l0,5.4l-1.3,0.5l0.1,7.6l3.3,2.4l-0.2,3.2l-5.2,2.2l-12.1,0.5l0.2,2.2l8,4.3l-4.1,4.8
		l-4.5,0.3l-1.5,9.1l1.9,0.8l0.7,3.5l-2.6,1.1l0.2,2.2l1.9,0.8l-2.1,2.4l-2.2,0.2l0,5.4l-5.1,9.8l-2-3l-1.9-0.8l-0.8,1.9l-4.3-2.8
		l-2.5,8.7l-15.6,6.6l-1.1-2.6l-2.2,0.2l-2.1,2.4l2.4,2.1l-5.8,0.9L91.5,97l1.1,2.6l-1.3,5.9l-8.9,6.1l-2.8-1.1l-15.5,8.8l-2.6-4.3
		l-8.5-0.2l-10.3,6.6l-8,1.1l-5.4,10.7l-4.5,0.3l-5.2-3.2l-1.7,1.5l-2-3l-5.6-2.3l-7.6,5.5l-1.5-1.7l-0.8,1.9l2.9,8.7l4.8,4.1
		l-2.4,3.3l1.9,0.8l1.1,2.6l-1.3,0.5l1.6,3.9l1.9,0.8l1.3,4.8l2.6-1.1l8,4.3l-1.5,3.7l11.8,8.1l-1.1,2.8l2.2,10.6l-0.8,1.9l-3.1-5.6
		l-3.4,8.3l-0.2,3.2l2.4,2.1l-2.3,5.6l10.4,1l1.6,3.9l1.9,0.8l7.4-2.4l4.1,0.6l1.3-5.9l3.2,0.2l2.1-2.4l8.5,0.2l8.2-4.2l8-1.1
		l2.7,6.5l5,6.3l-3.2-0.2l2.9,8.7l-1.3,5.9l1.6,3.9l22.6,2.7l0.3,4.5l3.5-0.7l2.7,6.5l1.9,0.8l1.5-3.7l4.1,0.6l1.1-2.8l-2.2-5.2
		l4.1-4.8l1.1,2.6l2.8,1.1l-0.8,7.2l3.7,1.5l2.2-0.2l5-4.4l3.3,2.4l3.4-3l0.5,1.3l0.2-3.2l5.4,0l1.5-3.7l-1.3-4.8l3.2-5.2l-1.1-2.6
		l3.4-3l5.9,1.3l3-2l2.4,7.4l6.5-2.7l-0.4,11.7l-1.9,4.6l1.9,0.8l-0.2,3.2l2.4,2.1l4.5-0.3l5.4-5.4l3.3,2.4l7.2,0.8l3,3.4l2.1-2.4
		l-1.5-1.7l5.4-5.4l4.8-1.3l4.1,6l4.7-3.5l2.4,2.1l-0.5-1.3l2.6-1.1l-0.3-4.5l4.9-6.7l5.4,0l-1.8-6.1l1.7-1.5l3.7,1.5l3.9-1.6
		l-0.5-1.3l3.2-5.2l2.2-0.2l3-7.4l2.2-0.2l0.8-1.9l1.9,0.8l0.8-1.9l1.9,0.8l0.8-1.9l1.5,1.7l3-2l1.6,3.9l8.5,5.6l4.5-0.3l6.5,2.6
		l2.6-1.1l-3.3-7.8l-4.5,0.3l-0.3-15.2l5,6.3l8.9-0.7l2,3l3.7,1.5l3-2l1.9,0.8l3.4-8.3l8.5,0.2l2,3l5-4.4l8.7-2.9l3.6-6.1l1.9,0.8
		l1.7-1.5l1.6,3.9l7.6-5.5l5.2,3.2l2.6-1.1l0.9,5.8l1.9,0.8l2.1-2.4l3,3.4l8.2-4.2l1.1-2.8l4.1,0.6l0.8-12.6l-1.9-0.8l-0.7-3.5
		l3.5-0.7l1.7-6.9l-2.6-4.3l-1.7,1.5l-2.4-2.1l4.7-3.5l-0.5-1.3l2.2-0.2l1.1,2.6l12.8-2.3l1.4,7.1l4.7-3.5l-1,5l4.1,0.6l0.8-1.9
		l3.9-1.6l-0.5-1.3l4.5-0.3l5,6.3l2.2-0.2l9.1,6.9l3.5-0.7l10.5-9.8L450.4,143.6z"/>
	<path class="st1" d="M396.4,101.1l-3.3-2.4l2.6-1.1l-0.5-1.3l-3.5,0.7l1.1-2.8l-4.6-1.9l3.7-3.9l-0.7-3.5l2.1-2.4l-1.9-0.8
		l-5.2,2.2l1.1,2.6l-3.9,1.6l0.7,3.5l-3.9,1.6l1.9,0.8l-1.7,1.5l-1.9-0.8l-2.1,2.4l-2.1,7.8l-5.9-1.3l0.5,1.3l-2.6,1.1l0.7,3.5l-3,2
		l-1.9-0.8l-2.1,2.4l0.5,1.3l11.1-0.9l6.1-1.8l8-6.5l7.2,0.8l2.4-3.3L396.4,101.1z"/>
	<path class="st1" d="M362.3,84L363,93l5.6,2.3l1.1,2.6l-1,5l5.6,2.3l2.1-7.8l2.1-2.4l1.9,0.8l1.7-1.5l-1.9-0.8l3.5-0.7l1.1-2.8
		l-1.5-1.7l3.9-1.6l-1.1-2.6l3.9-1.6l-4.8-4.1l-4.7,3.5l-5.7-4.5l-3,7.4l-2.6,1.1l-5.6-2.3L362.3,84z"/>
	<path class="st2" d="M335.8,106.7l1.9,0.8l0.7,3.5l-7.8,8.7l3.3,2.4l-1.3,0.5l1.9,0.8l2.2,5.2l3.2,0.2l0.7,3.5l5.6,2.3l5.2-2.2l2,3
		l8-1.1l-6-14.3l5.2-7.6l6.5-2.7l-1.1-2.6l2.6-1.1l0.8-7.2l-0.7-3.5L363,93l0.8-7.2l-2-3l-0.3-4.5l-7.8-2.1l-3.9,7l1.1,2.6l3.7,1.5
		l-0.2,3.2l-2.6,1.1l0.3,4.5l-5,4.4l-0.5-1.3l-4.5,0.3l-0.8,1.9l-0.5-1.3l0.2,2.2l1.3-0.5l-5,4.4L335.8,106.7z"/>
	<path class="st1" d="M378,112l-8.7,2.9l-12.1,0.5l-1.9,4.6l1.8,6.1l6.1-1.8l2.6,4.3l2.2-0.2l-0.8,1.9l2.2-0.2l3.4-3l-1.9-0.8
		l0.8-1.9l2.1-2.4l1.9,0.8l3.4-8.3L378,112z"/>
	<path class="st1" d="M450.4,143.6l-1.9-0.8l1.7-1.5l-13.3-4.3l-0.5-6.7l-7.8-2.1l-2.1,2.4l-1.1-2.6l-1.3,0.5l-1.6-3.9l-2.8-1.1
		l1.1-2.8l-2.4-2.1l0.6-4.1l-3.5,0.7l-3.7-1.5l-6,4.1l-4.5,0.3l-2.4-2.1l-2.9-8.7l-10-1.9l-8,6.5l1.1,2.6l-3,7.4l-4.3,2.6l-0.8,1.9
		l1.9,0.8l-3.4,3l-1.3,0.5l-4.8-4.1l-0.2-2.2l-2.6,1.1l-0.5-1.3l-3,2l4.2,8.2l-10.6,2.2l-1.5,3.7l-2.6,1.1l-1.2,8.2l-6.9,3.7
		l-1.9-0.8l-1,5l-2.6,1.1l0.7,3.5l-2.1,2.4l-3.5,0.7l-0.2,3.2l-2.6,1.1l1.1,8l1.1,2.6l2.2-0.2l6.5-2.7l3.6-6.1l1.9,0.8l1.7-1.5
		l1.6,3.9l7.6-5.5l5.2,3.2l2.6-1.1l0.9,5.8l1.9,0.8l2.1-2.4l3,3.4l8.2-4.2l1.1-2.8l4.1,0.6l0.8-12.6l-1.9-0.8l-0.7-3.5l3.5-0.7
		l1.7-6.9l-2.6-4.3l-1.7,1.5l-2.4-2.1l4.7-3.5l-0.5-1.3l2.2-0.2l1.1,2.6l12.8-2.3l1.4,7.1l4.7-3.5l-1,5l4.1,0.6l0.8-1.9l3.9-1.6
		l-0.5-1.3l4.5-0.3l5,6.3l2.2-0.2l9.1,6.9l3.5-0.7l10.5-9.8L450.4,143.6z"/>
	<path class="st1" d="M373.9,76.9l3-7.4l5.6-3.1l2.1-7.8l-5.9-1.3l-2.4-2.1l2.1-2.4l-5.6-2.3l-3.4,3l-0.8,7.2l-2.1,2.4l-3.2-0.2
		l-5.9-6.7l-3.7-1.5l-3.9,1.6l-2.2-5.2l-1.3,0.5l-0.3-4.5l-9.3-3.8l0.8-1.9l1.9,0.8l-2.4-2.1l-0.9-5.8l-2.2,0.2l-2.6-4.3l-4.1-0.6
		l-3.9-3.7l3-7.4l-4.1-0.6l-2.4-2.1l-0.7-3.5l-5.4,0l0.1,7.6l-3.8,9.3l-3,2l-0.8,7.2l-6.1,1.8l5.5,7.6l2.6-1.1l2.4,2.1l-0.8,1.9
		l2.4,2.1l3.1,11l-3.9,7l5.4,0l1.1,2.6l-0.8,1.9l-1.9-0.8l-1.5,3.7l6.9,1.7l-5.6,8.5l-4.3,2.6l0.1,7.6l8-1.1l4.6,1.9l1.6,3.9
		l-2.4,3.3l6.7-0.5l3.7,1.5l8.9-6.1l-1.9-0.8l1.9,0.8l-0.2-2.2l4.5-0.3l0.5,1.3l0.8-1.9l3.9-1.6l1.1-2.8l-1.1-2.6l2.6-1.1l0.2-3.2
		l-3.7-1.5l-1.1-2.6l3.6-6.1l8.2,1.2l0.9,5.8l4.8-1.3l2.4,2.1l3-2l1-5L373.9,76.9z"/>
	<path class="st1" d="M335.8,106.7l-12.1,0.5l1.3-5.9l-6.1-3.6l-14.1,2.9l0.2,2.2l-10.4,4.4l-0.8,1.9l-1.9-0.8l-1.1,2.8l-3.7-1.5
		l-1.1-2.6l-2.6,1.1l-6.3-5.8l-2.9-8.7l-4.5,0.3l-3.3-2.4l1.7-1.5l-1.5-1.7l1.1-2.8l-3.5-4.7l1.3-5.9l-6.3-0.4l-3.7,3.9l-5-1l-3.4,3
		l-8.3-3.4l-0.8,1.9l1.6,3.9l-5.6,3.1l9.2,9.2l-1.7,6.9l-3,2l1.1,2.6l3.2,0.2l1.6,3.9l-2.4,3.3l1.1,2.6l4.5-0.3l5.9,6.7l-0.2,8.5
		l6.5,2.6l-2.1,7.8l4.2,8.2l8.5,0.2l0.5,1.3l10.9,2.3l1.6,9.3l6.5,2.6l-3.2,5.2l-1.7,1.5l-1.9-0.8l-2.1,2.4l-0.8,1.9l1.6,3.9
		l5.7,4.5l1.1,2.6l8.9-0.7l2,3l3.7,1.5l3-2l1.9,0.8l4.7-8.9l7.2,0.8l2,3l2.6-1.1l2.4-3.3l-2.2-10.6l2.6-1.1l0.2-3.2l3.5-0.7l2.1-2.4
		l-1.1-2.6l3-2l1-5l1.9,0.8l6.9-3.7l2.6-6.5l-1.9-0.8l3-2l1.5-3.7l2.6-1.1l-1.1-2.6l-6.1,1.8l-5.6-2.3l-0.7-3.5l-5.6-2.3l0.2-3.2
		l-3-3.4l6.5-8.1l0.6-4.1L335.8,106.7z"/>
	<path class="st1" d="M188.6,99.8l0.7,3.5l3.2,0.2l0.4-6.3l2.1-2.4l-1.5-1.7l1.7-1.5l6.7-0.5l1.9,0.8l0.3,4.5l5.8-0.9l7.8,7.5
		l2.6-1.1l3.3,2.4l3.4-3l3.4-8.3l-1.1-2.6l2.2-0.2l3.2-5.2l4.8-1.3l-0.5-6.7l9.3,3.8l2.4-3.3l4.6,1.9l2.8-4.3l6.7-0.5l1.1,2.6
		l-1.5,3.7l2.6,4.3l0.1,7.6l6.3,0.4l0.2,2.2l2.4,2.1l0.3,4.5l7.2,6.2l2.6-1.1l1.1,2.6l3.7,1.5l1.1-2.8l1.9,0.8l0.8-1.9l8.7-2.9
		l1.5-3.7l6.1-1.8l-1.8-6.1l6-4.1l5.2-7.6l-6.5-2.6l1.5-3.7l1.9,0.8l0.6-4.1l-5.4,0l-0.5-1.3l4.3-8l-3.7-6.9l0.8-1.9l-2.8-1.1
		l0.2-3.2l-4.6-1.9l-5.9-6.7l-8.9,0.7l1.7-6.9l4.8-1.3l-0.5-1.3l-1.9-0.8l-4.3,2.6l-4.1-0.6l-2.4-2.1l-1.3-4.8L271.6,31l-9.4-6
		l-3.4,3l-1.9-0.8l-0.8,1.9l-11.5,1.8l-4.1-0.6l-1.3-4.8l-4.6-1.9l-7.8,3.3l-5.6-2.3l-2.3,5.6l-4.7,3.5l0.2-3.2l-6.3-0.4l-9.1-6.9
		l-5-6.3l-7.4,2.4l-7-9.3l-2.8-1.1l1.5-3.7l-3.7-1.5l-2-3L165,3.8l-7.6,0.1l-2.6,6.5l0,5.4l-1.3,0.5l0.1,7.6l3.3,2.4l-0.2,3.2
		l-5.2,2.2l-12.1,0.5l0.2,2.2l8,4.3l-4.1,4.8l-4.5,0.3l-1.5,9.1l1.9,0.8l0.7,3.5l-2.6,1.1l0.2,2.2l1.9,0.8l-2.1,2.4l4.8,4.1
		l10.2-1.2l-0.2,3.2l8-1.1l-1.1,2.8l1.1,2.6l12,4.9l-0.8,7.2l2.2-0.2l4.1,6l11.3,6.8L188.6,99.8z"/>
	<path class="st1" d="M394.1,106.7l1.9,0.8l4.4,10.4l5.4,0l6-4.1l7.2,0.8l-0.6,4.1l2.4,2.1l-0.6,4.1l2.2-0.2l2.6,4.3l1.3-0.5
		l0.2,2.2l2.1-2.4l7.8,2.1l-0.4,6.3l11.9,2.7l2.4,2.1l-2.6,1.1l2.8,1.1l16-7.5l-1.5-1.7l0.6-4.1l3.6-11.5l-5.9-6.7l-35.6-13.4
		l-6,4.1l-4.9,6.7l-4.2-8.2l7.1-6.8l-4.1-0.6L400,95l-4.7,8.9L394.1,106.7z"/>
	<path class="st1" d="M408.9,94.3l-3.5-4.7l1.1-2.8l-1.9-0.8l6.1-1.8l2.4-3.3l3-7.4l-1.9-0.8l2.8-9.6l-3.7-1.5l-3.9,1.6l-13-5.3
		l-0.2-2.2l-3.9,1.6l-2.4,3.3l-3.9,1.6l-1.9-0.8l-1.9,4.6l-5.2,2.2l-3.4,8.3l3.7,1.5l2,3l3.5-0.7l2.1-2.4l3.9,3.7l4.1,0.6l-2.1,2.4
		l0,5.4l-3,2l4.6,1.9l-1.1,2.8l3.9-1.6l0.2,2.2l-2.6,1.1l2.4,2.1l1.9,0.8L400,95l5,1l3-2L408.9,94.3z"/>
	<path class="st1" d="M233.8,86.8l-4.7,3.5l0.7,3.5l-5.4,10.7l-6.5-2.6l-7.2-6.2l-6.7,0.5l-0.3-4.5l-1.9-0.8l-8,1.1l-0.2,8.5
		l-2.4,3.3l-1.9-0.8l-0.7-3.5l-3.2-0.2l-3-3.4l-3.5,0.7l1.1,2.6l5.2,3.2l-1.3,0.5l0.7,3.5l-2.1,2.4l-5.4,0l-4.9,6.7l1.6,3.9l3.2,0.2
		l4.1,6l3.5-0.7l0.5,1.3L183,132l1.8,6.1l-4.7,8.9l8.5,5.6l10.6-7.6l0.9,5.8l1.9,0.8l3-2l1.3,4.8l4.1,0.6l3.7,6.9l8.5,0.2l3-2
		l3.7,1.5l2.5,9.7l-1,10.4l-1.7,1.5l6.1,3.6l3.5-0.7l-1.5,3.7l2.7,6.5l-2.1,2.4l0.7,3.5l5.6-3.1l4.4,5l4.1,0.6l3-7.4l2.2-0.2
		l0.8-1.9l1.9,0.8l0.8-1.9l1.9,0.8l0.8-1.9l1.5,1.7l3-2l1.6,3.9l6.7,4.9l12.2,1.7l0.5,1.3l2.6-1.1l-3.3-7.8l-4.5,0.3l-0.3-15.2
		l-1.9-0.8l-1.3-4.8l2.1-2.4l3.5-0.7l3.9-7l-4.5,0.3l-2.4-2.1l-1.6-9.3l-10.9-2.3l-0.5-1.3l-8.5-0.2l-4.2-8.2l1.7-6.9l-2-3l-4.6-1.9
		l1.7-1.5l-1.5-1.7l0.6-4.1l-5.9-6.7l-4.5,0.3l-1.1-2.6l2.4-3.3l-1.6-3.9l-3.2-0.2l-1.1-2.6l3-2l2.3-5.6l-2.6-4.3l-4.1-0.6l-1.6-3.9
		L233.8,86.8z"/>
	<path class="st1" d="M137.4,63.8l-2.2,0.2l0,5.4l-5.1,9.8l-2-3l-1.9-0.8l-0.8,1.9l-4.3-2.8l-2.5,8.7l-15.6,6.6l-1.1-2.6l-2.2,0.2
		l-2.1,2.4l2.4,2.1l-5.8,0.9L91.5,97l1.1,2.6l-1.3,5.9l-8.9,6.1l-2.8-1.1l-15.5,8.8l-2.6-4.3l-8.5-0.2l-10.3,6.6l-8,1.1l-5.4,10.7
		l-4.5,0.3l-5.2-3.2l-1.7,1.5l-2-3l-5.6-2.3l-7.6,5.5l-1.5-1.7l-0.6,4.1l4.8,9.5l2.8,1.1l-2.4,3.3l1.9,0.8l1.1,2.6l-1.3,0.5l1.6,3.9
		l1.9,0.8l1.3,4.8l2.6-1.1l8,4.3l-1.5,3.7l11.8,8.1l-1.1,2.8l2.2,10.6l-0.8,1.9l-3.1-5.6l-3.4,8.3l-0.2,3.2l2.4,2.1l-2.3,5.6l10.4,1
		l1.6,3.9l1.9,0.8l7.4-2.4l4.1,0.6l1.3-5.9l3.2,0.2l2.1-2.4l8.5,0.2l11.7-4.9l8.9-0.7l2.8,1.1l5.2-2.2l3.3,2.4l2.6-1.1l7.2,0.8
		l9.1-3.8l5,1l1.1-2.8l3.9-1.6l11.9,2.7l8.8-8.3l0.6-4.1l1.3-0.5l2.6,4.3l0.8-1.9l8-1.1l1.1-2.8l3.2,0.2l0.8-1.9l-4.5,0.3l-2.4-2.1
		l-0.7-3.5l2.2-0.2l3.6-6.1l7.4-2.4l4.1,0.6l7.5-7.8l5.2-2.2l-5.6-2.3l0.8-1.9l-4.6-1.9l4.3-8l-1.8-6.1l2.4-3.3l0-5.4l-3,2l-5-6.3
		l-3.2-0.2l-1.6-3.9l3.2-5.2l9.1-3.8l-1.1-2.6l1.1-2.8l-6.1-3.6l3.9-1.6l3.9,3.7l2.6-1.1l-0.5-1.3l-2.2,0.2l-3-3.4l-8-4.3l1.3-0.5
		l-3-3.4l-2.2,0.2l-0.3-4.5l2.1-2.4l-10.6-3.2l-3.5-4.7l1.1-2.8l-8,1.1l0.6-4.1l-3,2l-7.6,0.1L137.4,63.8z"/>
	<path class="st1" d="M250.6,204.8l-7.2-6.2l-3.7,3.9l-1.6-3.9l2.1-2.4l-2.7-6.5l1.5-3.7l-2.6,1.1l-7-3.9l1.7-1.5l1-10.4l-2.5-9.7
		l-3.7-1.5l-2.1,2.4l-9.5-0.6l-2.2-5.2l-4.6-1.9l-2.2-5.2l-3,2l-1.9-0.8l-0.9-5.8l-12.7,10l-1.9-0.8l-7.8,8.7l-9.8,0.3l-5.2,7.6
		l-2.2,0.2l2.2,5.2l4.5-0.3l0.5,1.3l-1.7,1.5l-1.5-1.7l-1.1,2.8l-3.9,1.6l-1.9-0.8l-3.4,3l-1.6-3.9l-2.2,0.2l-0.2,3.2l-5,4.4
		l-1.5,3.7l-2.6,1.1l-12.8-3l-4.1,4.8l-4.6-1.9l-9.5,4.8l-7.2-0.8l-1.7,1.5l-3.3-2.4l-1.7,1.5l-11.7-0.4l2.7,6.5l5,6.3l-3.2-0.2
		l2.9,8.7l-1.3,5.9l1.6,3.9l22.6,2.7l0.3,4.5l3.5-0.7l2.7,6.5l1.9,0.8l1.5-3.7l4.1,0.6l1.1-2.8l-2.2-5.2l4.1-4.8l1.1,2.6l2.8,1.1
		l-0.8,7.2l3.7,1.5l2.2-0.2l5-4.4l3.3,2.4l3.4-3l0.5,1.3l0.2-3.2l5.4,0l1.5-3.7l-1.3-4.8l3.2-5.2l-1.1-2.6l3.4-3l5.9,1.3l3-2
		l2.4,7.4l6.5-2.7l-0.4,11.7l-1.9,4.6l1.9,0.8l-0.2,3.2l2.4,2.1l4.5-0.3l5.4-5.4l3.3,2.4l7.2,0.8l3,3.4l2.1-2.4l-1.5-1.7l5.4-5.4
		l4.8-1.3l4.1,6l4.7-3.5l2.4,2.1l-0.5-1.3l2.6-1.1l-0.3-4.5l4.9-6.7l5.4,0l-1.8-6.1l1.7-1.5l3.7,1.5l3.9-1.6l1.9-4.6L250.6,204.8z"
		/>
</g>
<text transform="matrix(1 0 0 1 305.0546 156.6693)" class="st3 st4">杭州市西湖区</text>
<line class="st5" x1="365.5" y1="98.2" x2="197.4" y2="98.2"/>
<text transform="matrix(1 0 0 1 197.3701 94.8234)" class="st3 st4">浙江大学西溪校区</text>
<circle class="st6" cx="365.5" cy="98.2" r="1.2"/>
</svg>
